HIERARCHY
ROOT Hips
{
	OFFSET 0.00000 0.00000 0.00000
	CHANNELS 6 Xposition Yposition Zposition Zrotation Yrotation Xrotation 
	JOINT LHipJoint
	{
		OFFSET 0 0 0
		CHANNELS 3 Zrotation Yrotation Xrotation
		JOINT LeftUpLeg
		{
			OFFSET 1.36443 -1.53315 0.80540
			CHANNELS 3 Zrotation Yrotation Xrotation
			JOINT LeftLeg
			{
				OFFSET 2.27494 -6.25036 0.00000
				CHANNELS 3 Zrotation Yrotation Xrotation
				JOINT LeftFoot
				{
					OFFSET 2.17461 -5.97470 0.00000
					CHANNELS 3 Zrotation Yrotation Xrotation
					JOINT LeftToeBase
					{
						OFFSET 0.22144 -0.60841 2.08966
						CHANNELS 3 Zrotation Yrotation Xrotation
						End Site
						{
							OFFSET 0.00000 -0.00000 1.09206
						}
					}
				}
			}
		}
	}
	JOINT RHipJoint
	{
		OFFSET 0 0 0
		CHANNELS 3 Zrotation Yrotation Xrotation
		JOINT RightUpLeg
		{
			OFFSET -1.29957 -1.53315 0.80539
			CHANNELS 3 Zrotation Yrotation Xrotation
			JOINT RightLeg
			{
				OFFSET -2.23917 -6.15209 0.00000
				CHANNELS 3 Zrotation Yrotation Xrotation
				JOINT RightFoot
				{
					OFFSET -2.18029 -5.99030 0.00000
					CHANNELS 3 Zrotation Yrotation Xrotation
					JOINT RightToeBase
					{
						OFFSET -0.22354 -0.61416 1.89975
						CHANNELS 3 Zrotation Yrotation Xrotation
						End Site
						{
							OFFSET -0.00000 -0.00000 1.00221
						}
					}
				}
			}
		}
	}
	JOINT LowerBack
	{
		OFFSET 0 0 0
		CHANNELS 3 Zrotation Yrotation Xrotation
		JOINT Spine
		{
			OFFSET -0.04725 2.10352 -0.01215
			CHANNELS 3 Zrotation Yrotation Xrotation
			JOINT Spine1
			{
				OFFSET 0.04471 2.09612 -0.07192
				CHANNELS 3 Zrotation Yrotation Xrotation
				JOINT Neck
				{
					OFFSET 0 0 0
					CHANNELS 3 Zrotation Yrotation Xrotation
					JOINT Neck1
					{
						OFFSET -0.01586 1.38087 0.11506
						CHANNELS 3 Zrotation Yrotation Xrotation
						JOINT Head
						{
							OFFSET -0.01055 1.38869 -0.12115
							CHANNELS 3 Zrotation Yrotation Xrotation
							End Site
							{
								OFFSET -0.00310 1.39537 -0.05348
							}
						}
					}
				}
				JOINT LeftShoulder
				{
					OFFSET 0 0 0
					CHANNELS 3 Zrotation Yrotation Xrotation
					JOINT LeftArm
					{
						OFFSET 2.71932 0.62535 0.37316
						CHANNELS 3 Zrotation Yrotation Xrotation
						JOINT LeftForeArm
						{
							OFFSET 4.47366 -0.00000 0.00000
							CHANNELS 3 Zrotation Yrotation Xrotation
							JOINT LeftHand
							{
								OFFSET 3.19948 -0.00000 -0.00000
								CHANNELS 3 Zrotation Yrotation Xrotation
								JOINT LeftFingerBase
								{
									OFFSET 0 0 0
									CHANNELS 3 Zrotation Yrotation Xrotation
									JOINT LeftHandIndex1
									{
										OFFSET 0.49267 -0.00000 -0.00000
										CHANNELS 3 Zrotation Yrotation Xrotation
										End Site
										{
											OFFSET 0.39720 -0.00000 -0.00000
										}
									}
								}
								JOINT LThumb
								{
									OFFSET 0 0 0
									CHANNELS 3 Zrotation Yrotation Xrotation
									End Site
									{
										OFFSET 0.40327 -0.00000 0.40327
									}
								}
							}
						}
					}
				}
				JOINT RightShoulder
				{
					OFFSET 0 0 0
					CHANNELS 3 Zrotation Yrotation Xrotation
					JOINT RightArm
					{
						OFFSET -2.97334 0.70851 0.47631
						CHANNELS 3 Zrotation Yrotation Xrotation
						JOINT RightForeArm
						{
							OFFSET -4.32690 -0.00000 -0.00000
							CHANNELS 3 Zrotation Yrotation Xrotation
							JOINT RightHand
							{
								OFFSET -3.18960 -0.00000 0.00000
								CHANNELS 3 Zrotation Yrotation Xrotation
								JOINT RightFingerBase
								{
									OFFSET 0 0 0
									CHANNELS 3 Zrotation Yrotation Xrotation
									JOINT RightHandIndex1
									{
										OFFSET -0.46450 -0.00000 -0.00000
										CHANNELS 3 Zrotation Yrotation Xrotation
										End Site
										{
											OFFSET -0.37449 -0.00000 -0.00000
										}
									}
								}
								JOINT RThumb
								{
									OFFSET 0 0 0
									CHANNELS 3 Zrotation Yrotation Xrotation
									End Site
									{
										OFFSET -0.38021 -0.00000 0.38021
									}
								}
							}
						}
					}
				}
			}
		}
	}
}
MOTION
Frames: 14
Frame Time: .0083333
-0.7221 15.0900 -9.4690 5.0260 6.7343 0.2613 0.0000 0.0000 0.0000 -11.4323 4.3170 -5.8183 2.9281 10.5777 30.8685 0.3376 -13.0230 -12.9627 2.4566 -9.7586 -28.1985 0.0000 0.0000 0.0000 13.9230 7.4519 -0.5211 -2.6277 -10.0665 29.1922 -0.8824 -20.8088 -34.9464 -0.0103 0.6552 -1.8005 -1.5684 1.8441 -5.3875 0.3118 2.5235 -4.2527 1.2976 1.3062 -1.4398 -4.6439 -2.7738 -16.5522 5.6629 -2.4918 -13.2307 2.5438 -0.9971 -1.3545 0.0000 0.0000 0.0000 -11.1830 6.8991 -11.4173 19.0744 -29.5110 -5.0674 -0.0000 0.0000 -17.3637 34.7533 4.7915 3.3168 -7.1250 0.0000 -0.0000 6.7660 35.7368 -1.5491 0.0000 0.0000 0.0000 13.3995 -11.1170 -36.7377 -13.4195 21.8988 -2.6077 0.0000 0.0000 15.3847 -9.4280 -31.9097 5.0161 7.1250 -0.0000 -0.0000 26.0512 -60.3116 -10.1329
-0.6837 15.0709 -9.5412 4.5708 6.3841 0.1505 0.0000 0.0000 0.0000 -12.1866 4.1557 -5.2659 2.7582 10.2930 29.9308 0.9102 -6.8895 -17.0313 2.9956 -10.6880 -31.2346 0.0000 0.0000 0.0000 13.9330 6.8808 -1.2070 -2.6668 -10.1351 29.4153 -0.8634 -20.1874 -34.1489 -0.0317 1.1486 -3.1577 -1.0046 1.9591 -5.1213 0.8642 2.6565 -4.1401 1.5467 1.3670 -1.4764 -4.2762 -2.4666 -17.1809 4.8877 -2.1690 -13.0692 2.2220 -0.8466 -1.2358 -0.0000 0.0000 0.0000 -12.5808 7.5163 -11.7739 18.6095 -28.9305 -4.8405 -0.0000 0.0000 -16.7306 34.6843 4.6797 3.2314 -7.1250 0.0000 -0.0000 6.7021 35.5985 -1.5570 -0.0000 0.0000 0.0000 11.8500 -10.5331 -35.7518 -13.7340 22.3531 -2.7261 0.0000 0.0000 14.2883 -11.0156 -30.8899 5.7071 7.1250 -0.0000 -0.0000 23.5436 -59.7671 -8.7806
-0.6314 15.0617 -9.6177 4.1992 5.9167 0.1049 0.0000 0.0000 0.0000 -12.9173 4.4159 -4.9563 2.5784 9.9791 28.9090 1.1635 -2.3996 -19.7340 2.9973 -10.6907 -31.2436 0.0000 0.0000 0.0000 13.8079 6.5619 -1.9606 -2.7155 -10.2196 29.6908 -0.8712 -19.4932 -33.4295 -0.0302 1.1210 -3.0819 -0.4281 2.0667 -4.8535 1.5264 2.7832 -3.9807 1.9016 1.4254 -1.4714 -3.7628 -1.9371 -17.7273 3.8160 -1.5960 -13.1351 1.7955 -0.5832 -1.2185 0.0000 0.0000 0.0000 -14.2667 8.2488 -12.4269 18.0070 -28.1661 -4.5526 -0.0000 0.0000 -15.8143 34.5369 4.7826 3.2841 -7.1250 0.0000 -0.0000 6.5840 35.7147 -1.5105 0.0000 0.0000 0.0000 10.0039 -9.7788 -34.9360 -14.1341 22.9261 -2.8801 0.0000 0.0000 12.9887 -14.1154 -31.4449 7.4737 7.1250 -0.0000 -0.0000 20.7413 -61.0089 -8.2929
-0.5734 15.0589 -9.7027 4.0873 5.4936 0.1979 0.0000 0.0000 0.0000 -13.7854 4.9114 -4.9502 2.4032 9.6597 27.8817 1.2590 -0.1806 -21.1656 2.6032 -10.0231 -29.0517 0.0000 0.0000 0.0000 13.3367 6.2148 -2.9430 -2.7837 -10.3364 30.0731 -0.8801 -18.7244 -32.6454 -0.0275 1.0713 -2.9449 -0.0586 2.1189 -4.5212 2.1482 2.8471 -3.8582 2.3252 1.4575 -1.5473 -3.1544 -1.3234 -18.0265 2.6436 -0.9448 -13.5128 1.3333 -0.2893 -1.3368 -0.0000 -0.0000 0.0000 -15.8003 9.2680 -12.4291 17.4526 -27.4506 -4.2939 -0.0000 0.0000 -15.7195 34.8366 4.8620 3.3758 -7.1250 0.0000 -0.0000 6.8398 35.8262 -1.5512 -0.0000 -0.0000 0.0000 8.1765 -9.0099 -34.0215 -14.6945 23.7189 -3.1020 0.0000 0.0000 11.0794 -12.1048 -31.4454 6.3840 7.1250 -0.0000 -0.0000 22.8696 -60.5272 -8.9301
-0.5193 15.0489 -9.7934 4.2288 5.2963 0.3390 0.0000 0.0000 0.0000 -14.7208 4.9541 -4.9396 2.2488 9.3661 26.9473 1.3122 1.0720 -22.0622 2.2992 -9.4634 -27.2559 0.0000 0.0000 0.0000 12.6807 5.9912 -3.9003 -2.8724 -10.4855 30.5637 -0.8985 -18.2142 -32.2087 -0.0224 0.9659 -2.6550 0.0141 2.0698 -4.1175 2.6794 2.7887 -3.7418 2.8162 1.4341 -1.6746 -2.5098 -0.6859 -18.3665 1.4561 -0.2798 -13.8111 0.8671 0.0088 -1.4098 -0.0000 -0.0000 0.0000 -17.1552 10.3318 -12.5034 16.8452 -26.6533 -4.0177 -0.0000 0.0000 -15.9583 35.3824 4.8421 3.4307 -7.1250 0.0000 -0.0000 7.2971 35.8315 -1.6553 -0.0000 -0.0000 0.0000 6.5370 -8.3191 -32.9940 -15.3996 24.6999 -3.3912 0.0000 0.0000 8.8114 -11.1701 -29.7534 5.5968 7.1250 -0.0000 -0.0000 22.4883 -58.7657 -7.8175
-0.4688 15.0343 -9.8879 4.5709 5.3862 0.5027 0.0000 0.0000 0.0000 -15.6278 4.4074 -4.8826 2.1247 9.1211 26.1749 1.3177 2.1526 -22.5569 2.2616 -9.3910 -27.0262 0.0000 0.0000 0.0000 11.9278 6.0313 -4.7378 -2.9787 -10.6605 31.1431 -0.9278 -18.0206 -32.1845 -0.0094 0.6274 -1.7240 -0.1279 2.0004 -3.7263 3.0556 2.7078 -3.6099 3.2700 1.4020 -1.7792 -1.6842 -0.0891 -18.5092 0.1431 0.2823 -14.2667 0.3331 0.2483 -1.5491 -0.0000 0.0000 0.0000 -18.3415 10.9668 -13.0793 16.1927 -25.7812 -3.7294 -0.0000 0.0000 -16.1929 35.4786 5.2172 3.7082 -7.1250 0.0000 -0.0000 7.4013 36.2922 -1.5954 -0.0000 0.0000 0.0000 5.1827 -8.2529 -31.4777 -16.2871 25.9083 -3.7705 0.0000 0.0000 6.1727 -18.9482 -29.6680 9.6443 7.1250 -0.0000 -0.0000 14.1758 -60.4804 -5.4147
-0.4203 15.0262 -9.9848 5.2180 5.7421 0.7201 0.0000 0.0000 0.0000 -16.6318 4.0427 -5.1047 2.0316 8.9316 25.5816 1.2916 2.3317 -22.4230 2.3435 -9.5476 -27.5239 0.0000 0.0000 0.0000 10.8814 6.0856 -5.5529 -3.0950 -10.8473 31.7666 -0.9679 -17.8589 -32.2616 -0.0020 0.2905 -0.7982 -0.5337 1.9117 -3.2488 3.2656 2.6066 -3.5295 3.6975 1.3649 -1.9869 -1.4148 0.2663 -18.4540 -0.6635 0.6469 -14.9415 0.0454 0.4202 -1.7827 -0.0000 -0.0000 0.0000 -19.4319 11.2749 -13.9599 15.6425 -25.0335 -3.4933 -0.0000 0.0000 -16.5530 35.3229 5.7338 4.0497 -7.1250 0.0000 -0.0000 7.2995 36.9089 -1.4625 -0.0000 -0.0000 0.0000 4.0790 -8.4995 -30.3908 -17.1953 27.1146 -4.1760 0.0000 0.0000 4.7196 -22.0055 -29.0690 11.1090 7.1250 -0.0000 -0.0000 10.3980 -60.6257 -3.9859
-0.3732 15.0270 -10.0833 5.9007 6.1962 0.9796 0.0000 0.0000 0.0000 -17.5516 4.1732 -5.7299 1.9697 8.8027 25.1800 1.2441 1.8687 -21.8213 2.4486 -9.7438 -28.1512 0.0000 0.0000 0.0000 9.8330 6.1778 -6.3271 -3.2030 -11.0167 32.3361 -1.0179 -17.6930 -32.3969 -0.0001 0.0741 -0.2037 -0.9368 1.7771 -2.6723 3.4272 2.4420 -3.4878 4.0719 1.2975 -2.2811 -1.5080 0.4874 -18.6492 -1.1535 0.9192 -15.3898 -0.0862 0.5634 -1.9050 0.0000 0.0000 0.0000 -20.5696 11.4923 -15.5500 15.2356 -24.4734 -3.3229 -0.0000 0.0000 -16.6092 35.4281 6.3141 4.4737 -7.1250 0.0000 -0.0000 7.4217 37.6191 -1.3574 0.0000 0.0000 0.0000 3.2441 -8.5598 -30.0876 -18.0025 28.1604 -4.5504 0.0000 0.0000 4.5603 -22.7522 -29.2150 11.5683 7.1250 -0.0000 -0.0000 9.6411 -60.9561 -3.7683
-0.3272 15.0315 -10.1816 6.4205 6.6013 1.2504 0.0000 0.0000 0.0000 -18.2861 4.3578 -6.5055 1.9377 8.7350 24.9698 1.1865 1.3567 -21.1131 2.5045 -9.8461 -28.4799 0.0000 0.0000 0.0000 9.0011 6.4152 -7.0239 -3.2891 -11.1489 32.7837 -1.0838 -17.5031 -32.6046 -0.0001 -0.0751 0.2063 -1.0911 1.6737 -2.0778 3.5042 2.3124 -3.4779 4.2203 1.2415 -2.6046 -1.2486 0.7284 -18.8409 -1.8967 1.1367 -15.7317 -0.3598 0.6619 -1.9876 0.0000 0.0000 0.0000 -21.4103 11.7129 -16.8346 15.0662 -24.2383 -3.2531 -0.0000 0.0000 -16.9652 35.5817 7.0012 4.9839 -7.1250 0.0000 -0.0000 7.5913 38.4632 -1.2306 0.0000 0.0000 0.0000 2.7926 -8.8329 -29.4825 -18.7898 29.1566 -4.9280 0.0000 0.0000 3.9478 -24.3992 -29.9739 12.7688 7.1250 -0.0000 -0.0000 8.1958 -62.1426 -3.4288
-0.2836 15.0368 -10.2751 6.8415 6.9586 1.4920 0.0000 0.0000 0.0000 -18.9270 4.4165 -7.2122 1.9290 8.7166 24.9128 1.1605 0.7498 -20.6455 2.3758 -9.6084 -27.7177 0.0000 0.0000 0.0000 8.2926 6.7624 -7.5866 -3.3465 -11.2359 33.0796 -1.1413 -17.2895 -32.7376 -0.0032 -0.3669 1.0082 -1.0274 1.6209 -1.5121 3.4668 2.2473 -3.5205 4.1283 1.2112 -2.9571 -0.9199 0.9329 -18.7338 -2.6789 1.2825 -16.1185 -0.6644 0.7247 -2.1279 0.0000 -0.0000 0.0000 -21.7491 12.0136 -16.8094 15.1347 -24.3334 -3.2812 -0.0000 0.0000 -18.0064 35.9284 7.5972 5.4724 -7.1250 0.0000 -0.0000 7.9258 39.2158 -1.1380 0.0000 -0.0000 0.0000 2.5860 -9.3360 -28.5887 -19.4542 29.9791 -5.2559 0.0000 0.0000 3.0047 -26.4238 -30.6050 14.1975 7.1250 -0.0000 -0.0000 6.1590 -63.3235 -2.7436
-0.2467 15.0442 -10.3599 7.1124 7.2666 1.6944 0.0000 0.0000 0.0000 -19.4187 4.4717 -7.8752 1.9335 8.7262 24.9424 1.1458 0.2807 -20.3431 2.2368 -9.3427 -26.8735 0.0000 0.0000 0.0000 7.7942 7.1034 -7.9889 -3.3731 -11.2759 33.2161 -1.1903 -17.0957 -32.8400 -0.0148 -0.7854 2.1585 -0.8012 1.5722 -1.0635 3.3986 2.1883 -3.5941 3.9168 1.1782 -3.2693 -0.8410 1.0510 -18.5552 -3.0836 1.3872 -16.2503 -0.8071 0.7775 -2.1953 -0.0000 -0.0000 0.0000 -21.7885 12.2425 -16.4348 15.2247 -24.4582 -3.3184 -0.0000 0.0000 -18.6503 36.6095 7.7503 5.7212 -7.1250 0.0000 -0.0000 8.5336 39.4644 -1.1741 -0.0000 -0.0000 0.0000 2.4918 -9.5808 -28.1899 -19.7809 30.3775 -5.4201 0.0000 0.0000 2.5816 -27.3374 -30.6194 14.7516 7.1250 -0.0000 -0.0000 5.0494 -63.5856 -2.2789
-0.2157 15.0566 -10.4342 7.1894 7.5114 1.9121 0.0000 0.0000 0.0000 -19.7287 4.4271 -8.5209 1.9443 8.7490 25.0132 1.1180 0.2005 -20.0675 2.2613 -9.3903 -27.0240 0.0000 0.0000 0.0000 7.5149 7.2303 -8.3759 -3.3732 -11.2759 33.2162 -1.2523 -16.7851 -32.9086 -0.0252 -1.0258 2.8198 -0.4833 1.5389 -0.7985 3.3768 2.1528 -3.6931 3.7073 1.1537 -3.5054 -0.9214 1.1021 -18.5377 -3.1949 1.4634 -16.0277 -0.8244 0.8175 -2.1201 0.0000 -0.0000 0.0000 -21.7184 12.3184 -16.0618 15.3208 -24.5911 -3.3583 -0.0000 0.0000 -18.8498 36.9057 7.5227 5.6151 -7.1250 0.0000 -0.0000 8.7791 39.2128 -1.2633 0.0000 -0.0000 0.0000 2.3719 -9.5067 -28.2084 -19.7116 30.2933 -5.3851 0.0000 0.0000 2.5007 -27.8658 -30.2949 14.9336 7.1250 -0.0000 -0.0000 4.2156 -63.3914 -1.8827
-0.1850 15.0708 -10.4997 7.1409 7.7087 2.0637 0.0000 0.0000 0.0000 -19.9270 4.2275 -8.9901 1.9535 8.7685 25.0739 1.0840 0.3938 -19.8292 2.2936 -9.4526 -27.2217 0.0000 0.0000 0.0000 7.2827 6.9636 -8.7635 -3.3571 -11.2518 33.1337 -1.3628 -15.9960 -32.8218 -0.0229 -0.9777 2.6873 -0.1574 1.5441 -0.6141 3.4524 2.1734 -3.8079 3.5957 1.1580 -3.7210 -0.8306 1.1532 -18.6907 -3.5442 1.5034 -15.5119 -0.9440 0.8255 -1.9174 0.0000 -0.0000 0.0000 -21.7321 12.2394 -15.5114 15.5016 -24.8403 -3.4339 -0.0000 0.0000 -18.8617 36.7897 7.1849 5.3434 -7.1250 0.0000 -0.0000 8.6544 38.7882 -1.3361 0.0000 -0.0000 0.0000 2.0528 -9.1757 -28.5949 -19.3032 29.7937 -5.1806 0.0000 0.0000 2.9550 -28.3080 -30.1002 15.1164 7.1250 -0.0000 -0.0000 3.5645 -63.3076 -1.5845
-0.1595 15.0803 -10.5598 7.0081 7.7936 1.9691 0.0000 0.0000 0.0000 -20.0088 4.0851 -9.1382 1.9536 8.7687 25.0743 1.0425 0.7410 -19.5785 2.3065 -9.4772 -27.2999 0.0000 0.0000 0.0000 7.0903 6.2786 -9.0143 -3.3403 -11.2266 33.0480 -1.5368 -14.5855 -32.5980 -0.0067 -0.5302 1.4569 0.1572 1.5765 -0.2803 3.6214 2.2391 -3.9193 3.5825 1.1868 -4.0257 -0.4692 1.2720 -18.7869 -4.1700 1.5691 -14.9486 -1.1974 0.8310 -1.7029 -0.0000 -0.0000 0.0000 -21.8991 12.0813 -14.9323 15.7351 -25.1601 -3.5326 -0.0000 0.0000 -18.6123 36.8004 6.9360 5.1622 -7.1250 0.0000 -0.0000 8.6464 38.4837 -1.4001 -0.0000 -0.0000 0.0000 1.5823 -8.6073 -29.0937 -18.7218 29.0716 -4.8950 0.0000 0.0000 3.3498 -29.2957 -30.2556 15.7858 7.1250 -0.0000 -0.0000 2.4117 -63.7411 -1.0961
